<?xml version="1.0" encoding="UTF-8" standalone="no"?>
<!DOCTYPE svg PUBLIC "-//W3C//DTD SVG 1.1//EN"
 "http://www.w3.org/Graphics/SVG/1.1/DTD/svg11.dtd">
<!-- Generated by graphviz version 2.43.0 (0)
 -->
<!-- Title: %3 Pages: 1 -->
<svg width="314pt" height="392pt"
 viewBox="0.00 0.00 314.00 392.00" xmlns="http://www.w3.org/2000/svg" xmlns:xlink="http://www.w3.org/1999/xlink">
<g id="graph0" class="graph" transform="scale(1 1) rotate(0) translate(4 388)">
<title>%3</title>
<polygon fill="white" stroke="transparent" points="-4,4 -4,-388 310,-388 310,4 -4,4"/>
<!-- c0000c6ec0 -->
<g id="node1" class="node">
<title>c0000c6ec0</title>
<ellipse fill="none" stroke="black" cx="27" cy="-105" rx="27" ry="18"/>
<text text-anchor="middle" x="27" y="-101.3" font-family="Times,serif" font-size="14.00">20</text>
</g>
<!-- c0000c6f00 -->
<g id="node2" class="node">
<title>c0000c6f00</title>
<ellipse fill="none" stroke="black" cx="99" cy="-105" rx="27" ry="18"/>
<text text-anchor="middle" x="99" y="-101.3" font-family="Times,serif" font-size="14.00">3</text>
</g>
<!-- c0000c70c0 -->
<g id="node3" class="node">
<title>c0000c70c0</title>
<ellipse fill="none" stroke="black" cx="99" cy="-192" rx="27" ry="18"/>
<text text-anchor="middle" x="99" y="-188.3" font-family="Times,serif" font-size="14.00">+</text>
</g>
<!-- c0000c70c0&#45;&gt;c0000c6ec0 -->
<g id="edge1" class="edge">
<title>c0000c70c0&#45;&gt;c0000c6ec0</title>
<path fill="none" stroke="black" d="M86.13,-175.8C73.02,-160.33 52.83,-136.49 39.76,-121.06"/>
<text text-anchor="middle" x="73" y="-144.8" font-family="Times,serif" font-size="14.00">L</text>
</g>
<!-- c0000c70c0&#45;&gt;c0000c6f00 -->
<g id="edge2" class="edge">
<title>c0000c70c0&#45;&gt;c0000c6f00</title>
<path fill="none" stroke="black" d="M99,-173.8C99,-159.05 99,-137.92 99,-123.18"/>
<text text-anchor="middle" x="104.5" y="-144.8" font-family="Times,serif" font-size="14.00">R</text>
</g>
<!-- c0000c6880 -->
<g id="node4" class="node">
<title>c0000c6880</title>
<ellipse fill="none" stroke="black" cx="171" cy="-105" rx="27" ry="18"/>
<text text-anchor="middle" x="171" y="-101.3" font-family="Times,serif" font-size="14.00">5</text>
</g>
<!-- c0000c60c0 -->
<g id="node5" class="node">
<title>c0000c60c0</title>
<ellipse fill="none" stroke="black" cx="207" cy="-18" rx="27" ry="18"/>
<text text-anchor="middle" x="207" y="-14.3" font-family="Times,serif" font-size="14.00">x</text>
</g>
<!-- c0000c6100 -->
<g id="node6" class="node">
<title>c0000c6100</title>
<ellipse fill="none" stroke="black" cx="279" cy="-18" rx="27" ry="18"/>
<text text-anchor="middle" x="279" y="-14.3" font-family="Times,serif" font-size="14.00">2</text>
</g>
<!-- c0000c68c0 -->
<g id="node7" class="node">
<title>c0000c68c0</title>
<ellipse fill="none" stroke="black" cx="243" cy="-105" rx="27" ry="18"/>
<text text-anchor="middle" x="243" y="-101.3" font-family="Times,serif" font-size="14.00">^</text>
</g>
<!-- c0000c68c0&#45;&gt;c0000c60c0 -->
<g id="edge3" class="edge">
<title>c0000c68c0&#45;&gt;c0000c60c0</title>
<path fill="none" stroke="black" d="M235.89,-87.21C229.54,-72.21 220.29,-50.37 213.98,-35.47"/>
<text text-anchor="middle" x="233" y="-57.8" font-family="Times,serif" font-size="14.00">L</text>
</g>
<!-- c0000c68c0&#45;&gt;c0000c6100 -->
<g id="edge4" class="edge">
<title>c0000c68c0&#45;&gt;c0000c6100</title>
<path fill="none" stroke="black" d="M250.11,-87.21C256.46,-72.21 265.71,-50.37 272.02,-35.47"/>
<text text-anchor="middle" x="269.5" y="-57.8" font-family="Times,serif" font-size="14.00">R</text>
</g>
<!-- c0000c7100 -->
<g id="node8" class="node">
<title>c0000c7100</title>
<ellipse fill="none" stroke="black" cx="171" cy="-192" rx="27" ry="18"/>
<text text-anchor="middle" x="171" y="-188.3" font-family="Times,serif" font-size="14.00">*</text>
</g>
<!-- c0000c7100&#45;&gt;c0000c6880 -->
<g id="edge5" class="edge">
<title>c0000c7100&#45;&gt;c0000c6880</title>
<path fill="none" stroke="black" d="M171,-173.8C171,-159.05 171,-137.92 171,-123.18"/>
<text text-anchor="middle" x="176" y="-144.8" font-family="Times,serif" font-size="14.00">L</text>
</g>
<!-- c0000c7100&#45;&gt;c0000c68c0 -->
<g id="edge6" class="edge">
<title>c0000c7100&#45;&gt;c0000c68c0</title>
<path fill="none" stroke="black" d="M183.87,-175.8C196.98,-160.33 217.17,-136.49 230.24,-121.06"/>
<text text-anchor="middle" x="217.5" y="-144.8" font-family="Times,serif" font-size="14.00">R</text>
</g>
<!-- c0000c7400 -->
<g id="node9" class="node">
<title>c0000c7400</title>
<ellipse fill="none" stroke="black" cx="134" cy="-279" rx="27" ry="18"/>
<text text-anchor="middle" x="134" y="-275.3" font-family="Times,serif" font-size="14.00">&#45;</text>
</g>
<!-- c0000c7400&#45;&gt;c0000c70c0 -->
<g id="edge7" class="edge">
<title>c0000c7400&#45;&gt;c0000c70c0</title>
<path fill="none" stroke="black" d="M127.09,-261.21C120.91,-246.21 111.92,-224.37 105.78,-209.47"/>
<text text-anchor="middle" x="124" y="-231.8" font-family="Times,serif" font-size="14.00">L</text>
</g>
<!-- c0000c7400&#45;&gt;c0000c7100 -->
<g id="edge8" class="edge">
<title>c0000c7400&#45;&gt;c0000c7100</title>
<path fill="none" stroke="black" d="M141.13,-261.61C147.64,-246.66 157.22,-224.66 163.76,-209.63"/>
<text text-anchor="middle" x="160.5" y="-231.8" font-family="Times,serif" font-size="14.00">R</text>
</g>
<!-- c0000c7440 -->
<g id="node10" class="node">
<title>c0000c7440</title>
<ellipse fill="none" stroke="black" cx="206" cy="-279" rx="27" ry="18"/>
<text text-anchor="middle" x="206" y="-275.3" font-family="Times,serif" font-size="14.00">8</text>
</g>
<!-- c0000c6040 -->
<g id="node11" class="node">
<title>c0000c6040</title>
<ellipse fill="none" stroke="black" cx="179" cy="-366" rx="27" ry="18"/>
<text text-anchor="middle" x="179" y="-362.3" font-family="Times,serif" font-size="14.00">=</text>
</g>
<!-- c0000c6040&#45;&gt;c0000c7400 -->
<g id="edge9" class="edge">
<title>c0000c6040&#45;&gt;c0000c7400</title>
<path fill="none" stroke="black" d="M170.32,-348.61C162.36,-333.56 150.61,-311.37 142.65,-296.34"/>
<text text-anchor="middle" x="165" y="-318.8" font-family="Times,serif" font-size="14.00">L</text>
</g>
<!-- c0000c6040&#45;&gt;c0000c7440 -->
<g id="edge10" class="edge">
<title>c0000c6040&#45;&gt;c0000c7440</title>
<path fill="none" stroke="black" d="M184.33,-348.21C189.07,-333.31 195.95,-311.65 200.68,-296.76"/>
<text text-anchor="middle" x="200.5" y="-318.8" font-family="Times,serif" font-size="14.00">R</text>
</g>
</g>
</svg>
