<?xml version="1.0" encoding="UTF-8" standalone="no"?>
<!DOCTYPE svg PUBLIC "-//W3C//DTD SVG 1.1//EN"
 "http://www.w3.org/Graphics/SVG/1.1/DTD/svg11.dtd">
<!-- Generated by graphviz version 2.43.0 (0)
 -->
<!-- Title: %3 Pages: 1 -->
<svg width="222pt" height="479pt"
 viewBox="0.00 0.00 222.00 479.00" xmlns="http://www.w3.org/2000/svg" xmlns:xlink="http://www.w3.org/1999/xlink">
<g id="graph0" class="graph" transform="scale(1 1) rotate(0) translate(4 475)">
<title>%3</title>
<polygon fill="white" stroke="transparent" points="-4,4 -4,-475 218,-475 218,4 -4,4"/>
<!-- c000118240 -->
<g id="node1" class="node">
<title>c000118240</title>
<ellipse fill="none" stroke="black" cx="27" cy="-105" rx="27" ry="18"/>
<text text-anchor="middle" x="27" y="-101.3" font-family="Times,serif" font-size="14.00">20</text>
</g>
<!-- c000118100 -->
<g id="node2" class="node">
<title>c000118100</title>
<ellipse fill="none" stroke="black" cx="63" cy="-18" rx="27" ry="18"/>
<text text-anchor="middle" x="63" y="-14.3" font-family="Times,serif" font-size="14.00">x</text>
</g>
<!-- c000118140 -->
<g id="node3" class="node">
<title>c000118140</title>
<ellipse fill="none" stroke="black" cx="135" cy="-18" rx="27" ry="18"/>
<text text-anchor="middle" x="135" y="-14.3" font-family="Times,serif" font-size="14.00">2</text>
</g>
<!-- c000118280 -->
<g id="node4" class="node">
<title>c000118280</title>
<ellipse fill="none" stroke="black" cx="99" cy="-105" rx="27" ry="18"/>
<text text-anchor="middle" x="99" y="-101.3" font-family="Times,serif" font-size="14.00">^</text>
</g>
<!-- c000118280&#45;&gt;c000118100 -->
<g id="edge1" class="edge">
<title>c000118280&#45;&gt;c000118100</title>
<path fill="none" stroke="black" d="M91.89,-87.21C85.54,-72.21 76.29,-50.37 69.98,-35.47"/>
<text text-anchor="middle" x="89" y="-57.8" font-family="Times,serif" font-size="14.00">L</text>
</g>
<!-- c000118280&#45;&gt;c000118140 -->
<g id="edge2" class="edge">
<title>c000118280&#45;&gt;c000118140</title>
<path fill="none" stroke="black" d="M106.11,-87.21C112.46,-72.21 121.71,-50.37 128.02,-35.47"/>
<text text-anchor="middle" x="125.5" y="-57.8" font-family="Times,serif" font-size="14.00">R</text>
</g>
<!-- c000118380 -->
<g id="node5" class="node">
<title>c000118380</title>
<ellipse fill="none" stroke="black" cx="43" cy="-192" rx="27" ry="18"/>
<text text-anchor="middle" x="43" y="-188.3" font-family="Times,serif" font-size="14.00">*</text>
</g>
<!-- c000118380&#45;&gt;c000118240 -->
<g id="edge3" class="edge">
<title>c000118380&#45;&gt;c000118240</title>
<path fill="none" stroke="black" d="M39.76,-173.8C36.97,-158.95 32.96,-137.64 30.18,-122.89"/>
<text text-anchor="middle" x="41" y="-144.8" font-family="Times,serif" font-size="14.00">L</text>
</g>
<!-- c000118380&#45;&gt;c000118280 -->
<g id="edge4" class="edge">
<title>c000118380&#45;&gt;c000118280</title>
<path fill="none" stroke="black" d="M53.53,-175.01C63.55,-159.82 78.52,-137.09 88.51,-121.92"/>
<text text-anchor="middle" x="80.5" y="-144.8" font-family="Times,serif" font-size="14.00">R</text>
</g>
<!-- c0001183c0 -->
<g id="node6" class="node">
<title>c0001183c0</title>
<ellipse fill="none" stroke="black" cx="115" cy="-192" rx="27" ry="18"/>
<text text-anchor="middle" x="115" y="-188.3" font-family="Times,serif" font-size="14.00">3</text>
</g>
<!-- c000118480 -->
<g id="node7" class="node">
<title>c000118480</title>
<ellipse fill="none" stroke="black" cx="79" cy="-279" rx="27" ry="18"/>
<text text-anchor="middle" x="79" y="-275.3" font-family="Times,serif" font-size="14.00">+</text>
</g>
<!-- c000118480&#45;&gt;c000118380 -->
<g id="edge5" class="edge">
<title>c000118480&#45;&gt;c000118380</title>
<path fill="none" stroke="black" d="M71.89,-261.21C65.54,-246.21 56.29,-224.37 49.98,-209.47"/>
<text text-anchor="middle" x="69" y="-231.8" font-family="Times,serif" font-size="14.00">L</text>
</g>
<!-- c000118480&#45;&gt;c0001183c0 -->
<g id="edge6" class="edge">
<title>c000118480&#45;&gt;c0001183c0</title>
<path fill="none" stroke="black" d="M86.11,-261.21C92.46,-246.21 101.71,-224.37 108.02,-209.47"/>
<text text-anchor="middle" x="105.5" y="-231.8" font-family="Times,serif" font-size="14.00">R</text>
</g>
<!-- c0001184c0 -->
<g id="node8" class="node">
<title>c0001184c0</title>
<ellipse fill="none" stroke="black" cx="151" cy="-279" rx="27" ry="18"/>
<text text-anchor="middle" x="151" y="-275.3" font-family="Times,serif" font-size="14.00">5</text>
</g>
<!-- c0001185c0 -->
<g id="node9" class="node">
<title>c0001185c0</title>
<ellipse fill="none" stroke="black" cx="115" cy="-366" rx="27" ry="18"/>
<text text-anchor="middle" x="115" y="-362.3" font-family="Times,serif" font-size="14.00">&#45;</text>
</g>
<!-- c0001185c0&#45;&gt;c000118480 -->
<g id="edge7" class="edge">
<title>c0001185c0&#45;&gt;c000118480</title>
<path fill="none" stroke="black" d="M107.89,-348.21C101.54,-333.21 92.29,-311.37 85.98,-296.47"/>
<text text-anchor="middle" x="105" y="-318.8" font-family="Times,serif" font-size="14.00">L</text>
</g>
<!-- c0001185c0&#45;&gt;c0001184c0 -->
<g id="edge8" class="edge">
<title>c0001185c0&#45;&gt;c0001184c0</title>
<path fill="none" stroke="black" d="M122.11,-348.21C128.46,-333.21 137.71,-311.37 144.02,-296.47"/>
<text text-anchor="middle" x="141.5" y="-318.8" font-family="Times,serif" font-size="14.00">R</text>
</g>
<!-- c000118600 -->
<g id="node10" class="node">
<title>c000118600</title>
<ellipse fill="none" stroke="black" cx="187" cy="-366" rx="27" ry="18"/>
<text text-anchor="middle" x="187" y="-362.3" font-family="Times,serif" font-size="14.00">8</text>
</g>
<!-- c000118040 -->
<g id="node11" class="node">
<title>c000118040</title>
<ellipse fill="none" stroke="black" cx="160" cy="-453" rx="27" ry="18"/>
<text text-anchor="middle" x="160" y="-449.3" font-family="Times,serif" font-size="14.00">=</text>
</g>
<!-- c000118040&#45;&gt;c0001185c0 -->
<g id="edge9" class="edge">
<title>c000118040&#45;&gt;c0001185c0</title>
<path fill="none" stroke="black" d="M151.32,-435.61C143.36,-420.56 131.61,-398.37 123.65,-383.34"/>
<text text-anchor="middle" x="146" y="-405.8" font-family="Times,serif" font-size="14.00">L</text>
</g>
<!-- c000118040&#45;&gt;c000118600 -->
<g id="edge10" class="edge">
<title>c000118040&#45;&gt;c000118600</title>
<path fill="none" stroke="black" d="M165.33,-435.21C170.07,-420.31 176.95,-398.65 181.68,-383.76"/>
<text text-anchor="middle" x="181.5" y="-405.8" font-family="Times,serif" font-size="14.00">R</text>
</g>
</g>
</svg>
